<?xml version="1.0" encoding="UTF-8"?>
<svg version="1.1" xmlns="http://www.w3.org/2000/svg" width="60" height="78">
<path d="M0 0 C8.58 0 17.16 0 26 0 C25 4 25 4 24 5 C22.41632938 18.49010691 25.7501244 27.95970737 31.875 39.8125 C32.6319829 41.33766955 33.38590695 42.86436122 34.13671875 44.39257812 C36.43946438 49.05806964 38.79083338 53.69755743 41.20996094 58.30395508 C42.90802474 61.94933495 42.5050488 66.09511048 42 70 C39.93433868 74.13132263 38.25134593 76.28588138 34 78 C31.88221741 78.26069641 31.88221741 78.26069641 29.58618164 78.2746582 C28.72170914 78.28419022 27.85723663 78.29372223 26.96656799 78.30354309 C26.04045212 78.30263168 25.11433624 78.30172028 24.16015625 78.30078125 C23.20104843 78.30506638 22.24194061 78.3093515 21.25376892 78.31376648 C19.22721139 78.31950434 17.20063327 78.32001405 15.17407227 78.31567383 C12.07727848 78.31251507 8.98144126 78.3359758 5.88476562 78.36132812 C3.9140637 78.36360132 1.94335922 78.36430452 -0.02734375 78.36328125 C-1.41348122 78.37709587 -1.41348122 78.37709587 -2.82762146 78.39118958 C-7.68732681 78.35630112 -11.11578872 78.25024185 -15 75 C-18.45561732 71.29721204 -18.76751084 68.31453072 -18.62792969 63.375 C-17.25464692 55.99387209 -13.19090903 49.52609811 -9.625 43 C-8.8208778 41.48675876 -8.01877687 39.97244162 -7.21875 38.45703125 C-1.67947538 28.01921308 -1.67947538 28.01921308 1 24 C1.29070512 21.84169382 1.29070512 21.84169382 1.23046875 19.47265625 C1.22853516 18.59802734 1.22660156 17.72339844 1.22460938 16.82226562 C1.21236328 15.91154297 1.20011719 15.00082031 1.1875 14.0625 C1.18685547 13.15564453 1.18621094 12.24878906 1.18554688 11.31445312 C1.15870409 7.26119283 0.99264394 3.97057577 0 0 Z " fill="#FEFEFE" transform="translate(18,0)"/>
</svg>
